<svg xmlns="http://www.w3.org/2000/svg" viewBox="0 0 39.9 40">
    <defs><style>.cls-1{fill:#29aae1;}</style></defs>
    <title>Asset 4</title>
    <g id="Layer_2" data-name="Layer 2">
        <g id="Layer_1-2" data-name="Layer 1">
            <path class="cls-1" d="M36.46,1.36H17.27a.87.87,0,0,0-.87.87V9l1-.6a2.37,2.37,0,0,1,.76-.31v-5H35.61V15.57H18.13v-2l-1.72,1.08v1.8a.87.87,0,0,0,.87.87H36.46a.87.87,0,0,0,.87-.87V2.23A.87.87,0,0,0,36.46,1.36Z"></path>
            <path class="cls-1" d="M23.84,6.12A.67.67,0,0,0,22.9,6l-3,2.35a2.4,2.4,0,0,1,.73.74,2.42,2.42,0,0,1,.14.27l2.94-2.32A.67.67,0,0,0,23.84,6.12Z"></path>
            <circle class="cls-1" cx="9.44" cy="2.49" r="2.49"></circle>
            <path class="cls-1" d="M19.65,9.7A1.2,1.2,0,0,0,18,9.31l-2.44,1.52c0-2,0-1,0-2.25A2.86,2.86,0,0,0,12.7,5.73h-1.2s-.69,1.7-1.54,3.92l.36-1.57a.5.5,0,0,0-.05-.35l-.49-.89.43-.79A.17.17,0,0,0,10,5.81H8.86a.17.17,0,0,0-.15.25l.43.79-.49.89a.5.5,0,0,0-.05.34l.31,1.57L7.41,5.73H6.24A2.87,2.87,0,0,0,3.37,8.58l0,8.89a1.21,1.21,0,0,0,1.2,1.22h0s1.2-.57,1.2-1.23l.08-8.84h0a.23.23,0,0,1,.13-.21.24.24,0,0,1,.34.21v12.5a4,4,0,0,1,2.89,1V17.28h.62V22.9a4,4,0,0,1,.11,4.36,4.38,4.38,0,0,1,1.1.15,4,4,0,0,1,1.67-.87c0-21.85,0-8.35,0-17.94a.26.26,0,0,1,.2-.26.25.25,0,0,1,.3.25l0,4.39a1.22,1.22,0,0,0,.32.83A1.2,1.2,0,0,0,15,14l4.26-2.65A1.21,1.21,0,0,0,19.65,9.7Z"></path>
            <circle class="cls-1" cx="33.46" cy="25.2" r="2.64"></circle>
            <path class="cls-1" d="M39.89,31.68a3,3,0,0,0-3-3H30.06a3.91,3.91,0,0,1-.14,3.92,4.55,4.55,0,0,1,3.61,2h3.25v-2.9a.27.27,0,0,1,.17-.26.27.27,0,0,1,.37.23h0v2.93H39.9Z"></path>
            <path class="cls-1" d="M22.63,30.55a4,4,0,0,1,.46-1.87H17.21a4,4,0,0,1-.16,3.88,4.4,4.4,0,0,1,3.14,1.35,4.36,4.36,0,0,1,3-1.25A4,4,0,0,1,22.63,30.55Z"></path>
            <path class="cls-1" d="M20.63,22.53a2.64,2.64,0,1,0,2.64,2.64A2.64,2.64,0,0,0,20.63,22.53Z"></path>
            <path class="cls-1" d="M9.48,30.43a4,4,0,0,1,.42-1.79H3a3,3,0,0,0-3,3v3H2.51v-3a.27.27,0,0,1,.32-.26.28.28,0,0,1,.22.27v3H6.59a4.33,4.33,0,0,1,3.49-2.06A4,4,0,0,1,9.48,30.43Z"></path>
            <path class="cls-1" d="M6.42,22.53a2.64,2.64,0,1,0,2.64,2.64A2.64,2.64,0,0,0,6.42,22.53Z"></path>
            <path class="cls-1" d="M32.94,37a3,3,0,0,0-3-3H23.25s-3.09,1.34-3.1,3l0-.07c0-1.65-3-3-3-3H10.43a3.08,3.08,0,0,0-3.08,3v3H9.85v-3a.3.3,0,0,1,.27-.23.19.19,0,0,1,.2.23V40h6.79V37a.25.25,0,0,1,.19-.25.24.24,0,0,1,.28.24v3h5.06V37a.22.22,0,0,1,.13-.2.24.24,0,0,1,.34.21v3h6.79V37a.25.25,0,0,1,.19-.25.24.24,0,0,1,.28.24v3H33Z"></path>
            <circle class="cls-1" cx="13.69" cy="30.44" r="2.67"></circle>
            <circle class="cls-1" cx="26.66" cy="30.51" r="2.67"></circle>
        </g>
    </g>
</svg>