<svg xmlns="http://www.w3.org/2000/svg" viewBox="0 0 33.5 28.37"><defs><style>.cls-1{fill:#fff;}</style></defs><title>Asset 3cart</title><g id="Layer_2" data-name="Layer 2"><g id="Layer_2-2" data-name="Layer 2"><g id="g2991"><path id="path2993" class="cls-1" d="M12.86,25.79a2.49,2.49,0,0,1-.76,1.82,2.57,2.57,0,0,1-3.65,0,2.48,2.48,0,0,1-.75-1.82,2.56,2.56,0,0,1,2.58-2.58A2.48,2.48,0,0,1,12.1,24,2.53,2.53,0,0,1,12.86,25.79Zm18.06,0a2.49,2.49,0,0,1-.76,1.82,2.57,2.57,0,0,1-3.65,0,2.48,2.48,0,0,1-.75-1.82,2.56,2.56,0,0,1,2.58-2.58,2.48,2.48,0,0,1,1.82.75A2.53,2.53,0,0,1,30.92,25.79ZM33.5,3.87V14.19a1.24,1.24,0,0,1-.32.86,1.23,1.23,0,0,1-.82.43l-21,2.46a3.34,3.34,0,0,0,.09.43c0,.2.08.37.12.53a2.58,2.58,0,0,1,0,.45,3.86,3.86,0,0,1-.49,1.29H29.64a1.19,1.19,0,0,1,.9.38,1.25,1.25,0,0,1,0,1.81,1.19,1.19,0,0,1-.9.38H9A1.3,1.3,0,0,1,7.7,21.92a2.16,2.16,0,0,1,.22-.79c.15-.35.34-.74.59-1.2l.42-.77L5.36,2.58H1.29a1.24,1.24,0,0,1-.91-.39A1.23,1.23,0,0,1,0,1.29,1.27,1.27,0,0,1,.38.38,1.27,1.27,0,0,1,1.29,0H6.44A1.21,1.21,0,0,1,7,.13a1.42,1.42,0,0,1,.4.31,1.55,1.55,0,0,1,.26.5,2.92,2.92,0,0,1,.15.53c0,.15.07.35.11.59s.08.42.09.52H32.21a1.22,1.22,0,0,1,.91.38A1.22,1.22,0,0,1,33.5,3.87Z"/></g></g></g></svg>