<svg xmlns="http://www.w3.org/2000/svg" xmlns:xlink="http://www.w3.org/1999/xlink" viewBox="0 0 461.39 62"><defs><style>.cls-1{font-size:36px;fill:#f2a516;font-family:SnapITC-Regular, Snap ITC;}.cls-2,.cls-5{letter-spacing:-0.01em;}.cls-3{letter-spacing:0.03em;}.cls-4,.cls-5{fill:#3fa9f5;}.cls-6{fill:url(#radial-gradient);}.cls-7{fill:#2f8eed;}.cls-8{fill:#72b3f3;}</style><radialGradient id="radial-gradient" cx="70.39" cy="44.03" r="57.15" gradientTransform="matrix(0.55, -0.73, 1.51, 1.14, -36.56, 41.79)" gradientUnits="userSpaceOnUse"><stop offset="0.23" stop-color="#e8f2fd"/><stop offset="0.57" stop-color="#72b3f3"/></radialGradient></defs><title>Asset 2logo</title><g id="Layer_2" data-name="Layer 2"><g id="Layer_2-2" data-name="Layer 2"><text class="cls-1" transform="translate(170.92 38.52)">G<tspan class="cls-2" x="31.71" y="0">r</tspan><tspan class="cls-3" x="52.63" y="0">a</tspan><tspan x="76.27" y="0">vity</tspan><tspan class="cls-4" x="164.44" y="0">B</tspan><tspan class="cls-5" x="192.41" y="0">r</tspan><tspan class="cls-4" x="213.33" y="0">ain </tspan></text><path class="cls-6" d="M71.16,51.4c-3.64-1.21-5.45-7.27-5.45-7.27s-9.11.44-13.33-1.21c-7-2.73-8.78-19.68.91-32.1C64.49-3.53,86.13.36,88.42.82,90.22,1.19,106,4.6,112,16.88a14.83,14.83,0,0,1,1.82,8.48c-1,8.21-10.13,12.93-10.9,13.32C95.6,42.35,93.87,42,88.72,44.74c-2.75,1.46-1.22,4.12-3,6-4.24,4.55-10.9,1.82-10.9,1.82L72.06,62l-3.93-1.51S67.83,55,71.16,51.4Z"/><path class="cls-7" d="M49.35,13.54C6,13.54,0,23.54,0,27.11c0,10.36,42.81,15,79.33,15.2,38.56.25,81.47-6.35,80.56-15.44-.34-3.43-11.51-11.21-47.24-13.33,18.47,1.82,35.13,6.36,35.43,10.91.44,6.53-44.82,12.85-67.84,12.72-51.18-.31-66.93-8.54-66.93-13.63C13.31,18.69,30.88,16,49.35,13.54Z"/><path class="cls-8" d="M48.75,14.76c-13.33.9-30.6,5.73-30.59,8.21,0,7.19,33.18,10.4,61.75,10.56,30.16.17,61.9-4.42,61.19-10.73-.27-2.38-4.83-5.62-28.15-8,14.43,1.49,20.49,3.2,20.73,6.36C134,25.65,98.62,30.05,80.62,30c-40-.21-52.35-5.92-52.35-9.46C28.27,17.12,34.3,16.44,48.75,14.76Z"/></g></g></svg>