<svg xmlns="http://www.w3.org/2000/svg" viewBox="0 0 243.75 28.32"><defs><style>.cls-1{fill:none;stroke:#3fa9f5;stroke-miterlimit:10;stroke-width:2px;}.cls-2{fill:#3fa9f5;}</style></defs><title>Asset 8gbl-spacer</title><g id="Layer_2" data-name="Layer 2"><g id="Layer_2-2" data-name="Layer 2"><path class="cls-1" d="M118.51,22.55c-1.53-.5-2.29-3-2.29-3s-3.82.18-5.59-.51c-2.92-1.14-3.68-8.26.38-13.46,4.7-6,13.77-4.39,14.73-4.19.76.15,7.39,1.58,9.91,6.73a6.16,6.16,0,0,1,.76,3.55c-.41,3.45-4.24,5.43-4.57,5.59-3.09,1.54-3.81,1.4-6,2.54-1.15.61-.51,1.73-1.27,2.54-1.78,1.91-4.57.76-4.57.76L118.89,27l-1.65-.64A5.74,5.74,0,0,1,118.51,22.55Z"/><path class="cls-2" d="M109.36,5.87c-18.16,0-20.7,4.19-20.69,5.69,0,4.34,18,6.28,33.26,6.37,16.17.11,34.17-2.66,33.79-6.47-.15-1.44-4.83-4.7-19.82-5.59,7.75.76,14.74,2.66,14.86,4.57.19,2.74-18.79,5.39-28.44,5.33-21.47-.12-28.07-3.57-28.07-5.71S101.61,6.88,109.36,5.87Z"/><path class="cls-2" d="M109.11,6.38c-5.59.38-12.83,2.4-12.83,3.44,0,3,13.91,4.36,25.9,4.43,12.64.07,26-1.85,25.66-4.5-.11-1-2-2.36-11.81-3.37,6.05.62,8.6,1.34,8.7,2.66.14,1.91-14.71,3.75-22.26,3.71-16.78-.09-22-2.49-22-4S103.05,7.08,109.11,6.38Z"/><polygon class="cls-2" points="178.75 9.27 243.75 10.77 178.75 12.27 178.75 9.27"/><polygon class="cls-2" points="65 12.27 0 10.77 65 9.27 65 12.27"/></g></g></svg>