<svg xmlns="http://www.w3.org/2000/svg" viewBox="0 0 100 100"><defs><style>.cls-1{fill:#3fa9f5;}.cls-2{fill:#fff;}</style></defs><title>Asset 11circle-books</title><g id="Layer_2" data-name="Layer 2"><g id="Layer_2-2" data-name="Layer 2"><circle class="cls-1" cx="50" cy="50" r="50"/><path class="cls-1" d="M25.25,35.1C24.31,37,14.88,55.85,14.88,57.73c0,2.67,35.83,1.89,35.83,1.89s34.63.5,35.82-1.89c1-1.88-2.64-8.21-5-12.54-2.24-4-4.37-9.14-5.32-10.09-2.67-2.67-6.24-1.53-9.92-2.37a58.1,58.1,0,0,1-9.88-3.28v.94a21.12,21.12,0,0,1-5.61,1.41c-2.84.24-5.7-2.35-5.7-2.35s-4.41.83-9.68,2.11C32.05,32.38,27,31.63,25.25,35.1Z"/><path class="cls-2" d="M15.72,55.86c.46-1,9.52-19.48,10-20.44S25.24,34,24.86,35,13.77,56.67,13.18,57.87s-.6,2,1.73,2H47v1.68h7.58V59.74H87.08c1.14,0,2.16-.19,1.19-2s-11-21.54-11.52-22.59-1.41-.63-1,.19S85.46,55.09,85.83,56s.87,2.35-3.51,2.35c-5.9,0-16.23-3.64-20.72-3.64a15.1,15.1,0,0,0-10.85,4.84c-2.14-1.77-4.84-4.84-10.63-4.84S27,58.3,19.46,58.3C16.64,58.3,14.65,58.08,15.72,55.86Z"/><path class="cls-2" d="M80,52.05C79.18,50.16,71.37,32,71.37,32a9,9,0,0,1-2.29.22c-5,0-10.7-3-12.94-3s-5.4,2.3-5.4,2.3-3.56-2.3-5.25-2.3c-3.13,0-7.21,2.92-13.33,2.92A10.62,10.62,0,0,1,30,32s-8.31,19.5-8.91,20.82S20.51,55,22.75,55c5.38,0,15.08-4.33,18.11-4.33,5.58,0,9.88,5.56,9.88,5.56s4.75-5.51,9.83-5.51S72.51,55.1,78.83,55.1C80.77,55.1,80.77,54,80,52.05Zm-30.6-.39a11.14,11.14,0,0,0-8-2.92C35.94,48.74,27.78,53,25.49,53c-1.3,0-2-.27-1.49-1.9s7.11-17.2,7.11-17.2,1,.08,2.29.08c6.12,0,8.36-2.51,11.94-2.51,2.44,0,3.73,1.23,4,2.12ZM76.09,53c-2.29,0-10.45-4.24-15.93-4.24a11.17,11.17,0,0,0-8,2.92V33.57c.3-.89,1.6-2.12,4-2.12,3.59,0,5.83,2.51,12,2.51,1.34,0,2.28-.08,2.28-.08S77,49.45,77.58,51.08,77.38,53,76.09,53Z"/></g></g></svg>