<svg xmlns="http://www.w3.org/2000/svg" viewBox="0 0 100 100"><defs><style>.cls-1,.cls-2{fill:#3fa9f5;}.cls-2{stroke:#f2f2f2;stroke-miterlimit:10;stroke-width:2px;}</style></defs><title>Asset 9circileparent-child</title><g id="Layer_2" data-name="Layer 2"><g id="Layer_2-2" data-name="Layer 2"><circle class="cls-1" cx="50" cy="50" r="50"/><path class="cls-2" d="M40.29,7.5C32,8.5,28.35,15.73,28.08,22.89,27.73,32.46,40.31,31.32,40.29,34s-7,3.65-11.68,6.37c-15.19,8.87-9,25.48-10.62,41.94-.25,2.59,7.45-28.7,12.74-28.14,3.44.37,4.47,7.77,4.78,14.87.62,14.25,23.36,4.77,21.37-1.52-2.24-7.1-2.9-12.39-.13-13.35,5-1.72,6.78,3.65,10.61,2.13,4.26-1.69-4.78-15.93-9-18.58-5.26-3.29-9.79-1.43-10.56-3.72s7.7-5,7.7-15.13C55.48,11,50,6.33,40.29,7.5Z"/><path class="cls-2" d="M61.62,25.55c-6.91,0-9.72,6.7-9.94,12.53-.18,4.91,4.83,7.24,7.81,8.28A1.44,1.44,0,0,1,59.77,49a56.42,56.42,0,0,1-7.66,3.39c-5.72,2.14-2.53-5.82-14.74-7.42-2.1-.27,12.17,18.2,16.47,18.65,2.8.3,3.64,6.32,3.89,12.1.5,11.6,19,3.89,17.39-1.24-1.82-5.77-.79-8.58-.11-10.86.63-2.09,22.71-17.12,16.6-21.35-3.76-.47-11.84,10.12-15.3,8a26.4,26.4,0,0,0-6.94-2.65A.92.92,0,0,1,69,46c1.85-1.75,5.85-5.46,5.85-11.14C74.8,28.36,69.55,25.55,61.62,25.55Z"/></g></g></svg>