<svg xmlns="http://www.w3.org/2000/svg" viewBox="0 0 100 100"><defs><style>.cls-1{fill:#3fa9f5;}.cls-2,.cls-4,.cls-6{fill:none;stroke-miterlimit:10;}.cls-2,.cls-4{stroke:#f2f2f2;stroke-width:1.5px;}.cls-3{fill:#f2f2f2;}.cls-4{stroke-linecap:round;}.cls-5{fill:#fff;}.cls-6{stroke:#3fa9f5;stroke-width:2px;}</style></defs><title>Asset 10circle-school</title><g id="Layer_2" data-name="Layer 2"><g id="Layer_2-2" data-name="Layer 2"><circle class="cls-1" cx="50" cy="50" r="50"/><line class="cls-2" x1="85.42" y1="43.79" x2="85.76" y2="72.63"/><path class="cls-2" d="M35.32,36.75c.64.73,1.48.28,2.4.57"/><path class="cls-2" d="M61,37.28a22.36,22.36,0,0,0,4.41-1.46"/><polyline class="cls-2" points="85.47 43.8 62.35 43.59 62.06 36.83"/><path class="cls-3" d="M45.6,54.64a82.58,82.58,0,0,1-.22,15.5"/><path class="cls-3" d="M51.1,53.89q.12,7.95.6,15.89"/><path class="cls-2" d="M49.29,13.05a3.91,3.91,0,0,1,1.34-1,1.36,1.36,0,0,1,1.51.32c.42.53.68,2.08,1.36,2.08,1,0,2-2,6-2a4.68,4.68,0,0,1,3,1c.17-.86-1.63-2.57-2.34-3.1a3.84,3.84,0,0,0-2.49-.7c-1.69.05-3.17,1.8-3.76,1.62-.88-.26-.64-1.16-.75-1.75A1.27,1.27,0,0,0,52,8.45c-.75,0-1.43.94-2.1.6-.38-.19-.48-.68-.76-1-.62-.69-1.75-.31-2.58.11"/><path class="cls-2" d="M48.8,7.9c0,1.78.07,4.56.1,6.35,0,.53-.15,3.57-.15,3.57A15.64,15.64,0,0,1,47.5,19.5L35.07,32a6.66,6.66,0,0,0-1.5,1.93,2.3,2.3,0,0,0,.14,2.34,1,1,0,0,0,.88.43c.25,0,3.64.6,3.64.6L49.29,26.07l12.5,10.72s3.38-.72,3.6-.73a.91.91,0,0,0,.52-.23,5.68,5.68,0,0,0,1.25-1.34.65.65,0,0,0,.16-.49.7.7,0,0,0-.28-.36L51.2,20.32a17.39,17.39,0,0,1-1.7-2.82l-.16-2.25L49.5,7.5"/><path class="cls-2" d="M48.91,25.44q-5.38,6.22-11.27,12"/><path class="cls-4" d="M49.29,25.54a31.27,31.27,0,0,0,5.38,5.53l6.84,5.74"/><rect class="cls-5" x="20.09" y="48.59" width="5.37" height="8.32" rx="1.77" ry="1.77"/><rect class="cls-5" x="31.51" y="48.59" width="5.37" height="8.32" rx="1.77" ry="1.77"/><rect class="cls-5" x="20.14" y="60.27" width="5.37" height="8.32" rx="1.77" ry="1.77"/><rect class="cls-5" x="31.56" y="60.27" width="5.37" height="8.32" rx="1.77" ry="1.77"/><rect class="cls-3" x="64.09" y="48.59" width="5.37" height="8.32" rx="1.77" ry="1.77"/><rect class="cls-3" x="75.51" y="48.59" width="5.37" height="8.32" rx="1.77" ry="1.77"/><rect class="cls-3" x="64.14" y="60.27" width="5.37" height="8.32" rx="1.77" ry="1.77"/><rect class="cls-3" x="75.56" y="60.27" width="5.37" height="8.32" rx="1.77" ry="1.77"/><path class="cls-2" d="M38.38,37.31c.31,5.45-.58,1.43-.05,6.87-9.18.69-26.15.84-26.15.84s-1,2.52-.3,3.25,2.79.6,2.82,1.28c.24,5.88-.26,22.35-.26,22.35l27.1-.51.26-16.73c.15-.2,1-4.42,8.79-5,7.41-.51,9.3,4.45,9.3,4.45s-.14,16.41.25,16.72,17.25,1.33,25.58,1.8"/><path class="cls-3" d="M45.1,55.51c1.18-1.64,5-2.18,5.4-1.82a1.46,1.46,0,0,1,.3,1.07c.1,5.11.43,10.56.52,15.68-2,0-4.22-.25-6.22-.2"/><path class="cls-3" d="M50.66,53.65c1.87-.2,5.39,1.21,5.75,3.06a8.05,8.05,0,0,1,.07,1.77c-.16,3.76.54,11.6.45,11.72s-5.88.43-5.88.43"/><line class="cls-6" x1="51" y1="53" x2="51" y2="71"/></g></g></svg>