<svg xmlns="http://www.w3.org/2000/svg" viewBox="0 0 851.2 16.81"><defs><style>.cls-1{fill:#f2f2f2;}</style></defs><title>Asset 5links</title><g id="Layer_2" data-name="Layer 2"><g id="Layer_2-2" data-name="Layer 2"><path class="cls-1" d="M4.39,17l-.55,3.47H.11l3.2-16.2H8.54l3.24,16.2H7.91L7.35,17Zm2.46-3.13c-.36-2.36-.72-5-.92-6.49H5.8c-.16,1.55-.55,4.13-.93,6.49Z" transform="translate(-0.11 -3.92)"/><path class="cls-1" d="M13,4.22H18.4c2.9,0,4.52,1.48,4.52,4.16,0,2-.92,3-1.93,3.34a3.75,3.75,0,0,1,2.37,3.89c0,3.22-1.95,4.81-5.09,4.81H13Zm4.61,6.32c1.37,0,1.7-.56,1.7-1.81s-.52-1.79-1.66-1.79h-1v3.6Zm-1,7.19H17.8c1.15,0,1.75-.55,1.75-2.24s-.48-2.33-2-2.33h-.95Z" transform="translate(-0.11 -3.92)"/><path class="cls-1" d="M35.81,12.22c0,5.94-1.62,8.51-5.65,8.51-3.75,0-5.42-2.62-5.42-8.6,0-5.74,1.86-8.21,5.58-8.21S35.81,6.58,35.81,12.22Zm-7.18-.08c0,4,.36,5.66,1.64,5.66s1.65-1.55,1.65-5.66c0-3.85-.32-5.28-1.65-5.28S28.63,8.36,28.63,12.14Z" transform="translate(-0.11 -3.92)"/><path class="cls-1" d="M41.42,4.22V15.56c0,1.06.22,2.25,1.53,2.25s1.51-1,1.51-2.23V4.22H48.2V15.46c0,3.3-1.62,5.27-5.33,5.27s-5.18-1.95-5.18-5.3V4.22Z" transform="translate(-0.11 -3.92)"/><path class="cls-1" d="M52.69,7.26H49.5v-3H59.59v3H56.41V20.42H52.69Z" transform="translate(-0.11 -3.92)"/><path class="cls-1" d="M141.76,15.73c.09,1.33.47,2.25,1.59,2.25s1.42-.73,1.42-1.65c0-1.12-.56-1.78-2.47-2.76-2.81-1.45-3.88-2.68-3.88-5.06,0-2.77,1.7-4.59,4.91-4.59,3.78,0,4.86,2.36,4.89,4.85h-3.59c-.06-1.13-.26-2.1-1.32-2.1-.83,0-1.2.54-1.2,1.44s.36,1.41,2.12,2.29c3,1.51,4.28,2.79,4.28,5.51s-1.56,4.82-5.2,4.82c-3.94,0-5.15-2.25-5.22-5Z" transform="translate(-0.11 -3.92)"/><path class="cls-1" d="M152.49,7.26h-3.2v-3h10.1v3h-3.18V20.42h-3.72Z" transform="translate(-0.11 -3.92)"/><path class="cls-1" d="M171.15,12.22c0,5.94-1.62,8.51-5.65,8.51-3.76,0-5.43-2.62-5.43-8.6,0-5.74,1.86-8.21,5.58-8.21S171.15,6.58,171.15,12.22ZM164,12.14c0,4,.36,5.66,1.64,5.66s1.66-1.55,1.66-5.66c0-3.85-.32-5.28-1.66-5.28S164,8.36,164,12.14Z" transform="translate(-0.11 -3.92)"/><path class="cls-1" d="M176.81,13.79v6.63h-3.67V4.22h5.47c3.13,0,4.72,1.55,4.72,4.48,0,2.25-1.1,3.3-2.08,3.68,1.27.57,1.87,1.61,1.87,3.94v.57a25.92,25.92,0,0,0,.17,3.53h-3.61a16.66,16.66,0,0,1-.26-3.65v-.56c0-1.91-.38-2.42-1.81-2.42Zm0-2.79h.86c1.4,0,1.93-.5,1.93-2.08,0-1.34-.47-1.92-1.69-1.92h-1.1Z" transform="translate(-0.11 -3.92)"/><path class="cls-1" d="M193.83,13.55h-4.91v3.87h5.56l-.44,3h-8.77V4.22h8.78v3h-5.13v3.26h4.91Z" transform="translate(-0.11 -3.92)"/><path class="cls-1" d="M269.78,4.22h3.63V11c.78-1.65,2.35-4.93,3.3-6.75h4.12l-3.65,6.34,3.73,9.86h-4.06l-2.29-6.65-1.15,1.74v4.91h-3.63Z" transform="translate(-0.11 -3.92)"/><path class="cls-1" d="M285.6,4.22v16.2h-3.73V4.22Z" transform="translate(-0.11 -3.92)"/><path class="cls-1" d="M288.07,4.22h4.63c4.23,0,5.95,2.4,5.95,7.79,0,5.74-1.7,8.41-6.09,8.41h-4.49Zm3.74,13.37h.69c1.73,0,2.24-1.22,2.24-5.64,0-3.7-.46-4.87-2.22-4.87h-.71Z" transform="translate(-0.11 -3.92)"/><path class="cls-1" d="M303.59,15.73c.09,1.33.47,2.25,1.58,2.25s1.43-.73,1.43-1.65c0-1.12-.56-1.78-2.47-2.76-2.81-1.45-3.88-2.68-3.88-5.06,0-2.77,1.7-4.59,4.91-4.59,3.77,0,4.86,2.36,4.89,4.85h-3.59c-.06-1.13-.27-2.1-1.32-2.1-.83,0-1.2.54-1.2,1.44s.36,1.41,2.12,2.29c3,1.51,4.28,2.79,4.28,5.51s-1.57,4.82-5.2,4.82c-3.95,0-5.15-2.25-5.23-5Z" transform="translate(-0.11 -3.92)"/><path class="cls-1" d="M329.24,10.68l-3.5,6c-1.51,2.58-2.49,3.95-5.43,3.95s-4.57-1.76-4.57-4.63c0-2.14.91-3.49,4-5.15,2.13-1.15,2.37-1.92,2.37-3,0-.76-.27-1.29-1-1.29s-1,.55-1,1.31a3.77,3.77,0,0,0,1.11,2.35l8.25,10.2h-4.3L318.4,12a6.34,6.34,0,0,1-1.59-3.93A3.91,3.91,0,0,1,321.06,4c2.74,0,4.14,1.7,4.14,3.78,0,2.34-1.3,3.43-3.85,4.81-1.48.89-2.15,1.78-2.15,3.14s.53,2,1.59,2,1.52-.73,2.66-2.76l2.41-4.3Z" transform="translate(-0.11 -3.92)"/><path class="cls-1" d="M335.14,4.22h5.32c2.81,0,4.84,1.55,4.84,4.91s-1.82,5-5,5h-1.45v6.32h-3.7Zm3.7,7h1c1.28,0,1.77-.63,1.77-2.15S340.93,7,339.88,7h-1Z" transform="translate(-0.11 -3.92)"/><path class="cls-1" d="M349.22,17l-.55,3.47h-3.73l3.2-16.2h5.23l3.24,16.2h-3.87L352.18,17Zm2.46-3.13c-.37-2.36-.72-5-.93-6.49h-.12c-.16,1.55-.55,4.13-.94,6.49Z" transform="translate(-0.11 -3.92)"/><path class="cls-1" d="M361.53,13.79v6.63h-3.68V4.22h5.48c3.12,0,4.72,1.55,4.72,4.48,0,2.25-1.11,3.3-2.08,3.68,1.26.57,1.86,1.61,1.86,3.94v.57a23.89,23.89,0,0,0,.18,3.53h-3.62a16.82,16.82,0,0,1-.25-3.65v-.56c0-1.91-.39-2.42-1.81-2.42Zm0-2.79h.86c1.39,0,1.93-.5,1.93-2.08,0-1.34-.47-1.92-1.69-1.92h-1.1Z" transform="translate(-0.11 -3.92)"/><path class="cls-1" d="M378.55,13.55h-4.91v3.87h5.55l-.43,3H370V4.22h8.78v3h-5.13v3.26h4.91Z" transform="translate(-0.11 -3.92)"/><path class="cls-1" d="M380.75,20.42V4.22h4.08c2.46,7.63,3,9.47,3.2,10.21h.07c-.17-2-.22-4.71-.22-7.24v-3h3.29v16.2h-4c-2.56-8.42-3-10.05-3.23-10.75h-.07c.13,1.95.2,4.95.2,7.6v3.15Z" transform="translate(-0.11 -3.92)"/><path class="cls-1" d="M395.75,7.26h-3.19v-3h10.09v3h-3.18V20.42h-3.72Z" transform="translate(-0.11 -3.92)"/><path class="cls-1" d="M407.1,15.73c.1,1.33.48,2.25,1.59,2.25s1.43-.73,1.43-1.65c0-1.12-.57-1.78-2.47-2.76-2.82-1.45-3.88-2.68-3.88-5.06,0-2.77,1.69-4.59,4.9-4.59,3.78,0,4.86,2.36,4.89,4.85H410c-.07-1.13-.27-2.1-1.33-2.1-.83,0-1.2.54-1.2,1.44s.36,1.41,2.13,2.29c3,1.51,4.27,2.79,4.27,5.51s-1.56,4.82-5.2,4.82c-3.94,0-5.14-2.25-5.22-5Z" transform="translate(-0.11 -3.92)"/><path class="cls-1" d="M484.13,15.73c.09,1.33.47,2.25,1.58,2.25s1.43-.73,1.43-1.65c0-1.12-.56-1.78-2.47-2.76-2.81-1.45-3.88-2.68-3.88-5.06,0-2.77,1.7-4.59,4.91-4.59,3.78,0,4.86,2.36,4.89,4.85H487c-.06-1.13-.27-2.1-1.32-2.1-.83,0-1.2.54-1.2,1.44s.36,1.41,2.12,2.29c3,1.51,4.28,2.79,4.28,5.51s-1.56,4.82-5.2,4.82c-3.94,0-5.15-2.25-5.23-5Z" transform="translate(-0.11 -3.92)"/><path class="cls-1" d="M502.85,15.34c-.05,1.68-.65,5.39-5.17,5.39s-5.41-3.26-5.41-8.44c0-5.86,1.86-8.36,5.57-8.36,4.32,0,5,3.3,5,5.24h-3.72c0-.91-.05-2.31-1.35-2.31s-1.61,1.48-1.61,5.45c0,3.48.2,5.52,1.56,5.52s1.35-1.51,1.4-2.49Z" transform="translate(-0.11 -3.92)"/><path class="cls-1" d="M504.45,4.22h3.73v6.12H511V4.22h3.74v16.2H511v-7h-2.81v7h-3.73Z" transform="translate(-0.11 -3.92)"/><path class="cls-1" d="M527.81,12.22c0,5.94-1.62,8.51-5.65,8.51-3.75,0-5.42-2.62-5.42-8.6,0-5.74,1.85-8.21,5.57-8.21S527.81,6.58,527.81,12.22Zm-7.18-.08c0,4,.36,5.66,1.64,5.66s1.65-1.55,1.65-5.66c0-3.85-.32-5.28-1.65-5.28S520.63,8.36,520.63,12.14Z" transform="translate(-0.11 -3.92)"/><path class="cls-1" d="M540.53,12.22c0,5.94-1.62,8.51-5.65,8.51-3.75,0-5.42-2.62-5.42-8.6,0-5.74,1.86-8.21,5.58-8.21S540.53,6.58,540.53,12.22Zm-7.18-.08c0,4,.36,5.66,1.64,5.66s1.66-1.55,1.66-5.66c0-3.85-.33-5.28-1.66-5.28S533.35,8.36,533.35,12.14Z" transform="translate(-0.11 -3.92)"/><path class="cls-1" d="M542.52,4.22h3.73V17.4h5.14l-.35,3h-8.52Z" transform="translate(-0.11 -3.92)"/><path class="cls-1" d="M555.93,15.73c.1,1.33.48,2.25,1.59,2.25s1.42-.73,1.42-1.65c0-1.12-.56-1.78-2.46-2.76-2.82-1.45-3.88-2.68-3.88-5.06,0-2.77,1.69-4.59,4.9-4.59,3.78,0,4.86,2.36,4.89,4.85h-3.58c-.07-1.13-.27-2.1-1.33-2.1-.83,0-1.2.54-1.2,1.44s.36,1.41,2.13,2.29c3,1.51,4.28,2.79,4.28,5.51s-1.57,4.82-5.21,4.82c-3.94,0-5.14-2.25-5.22-5Z" transform="translate(-0.11 -3.92)"/><path class="cls-1" d="M581.59,10.68l-3.51,6c-1.51,2.58-2.49,3.95-5.43,3.95s-4.56-1.76-4.56-4.63c0-2.14.91-3.49,4-5.15,2.13-1.15,2.37-1.92,2.37-3,0-.76-.28-1.29-1-1.29s-1,.55-1,1.31a3.79,3.79,0,0,0,1.12,2.35l8.25,10.2h-4.3L570.74,12a6.39,6.39,0,0,1-1.58-3.93A3.91,3.91,0,0,1,573.4,4c2.75,0,4.14,1.7,4.14,3.78,0,2.34-1.3,3.43-3.84,4.81-1.49.89-2.15,1.78-2.15,3.14s.53,2,1.58,2S574.66,17,575.8,15l2.4-4.3Z" transform="translate(-0.11 -3.92)"/><path class="cls-1" d="M589.67,7.26h-3.2v-3h10.09v3h-3.18V20.42h-3.71Z" transform="translate(-0.11 -3.92)"/><path class="cls-1" d="M606.56,13.55h-4.91v3.87h5.55l-.43,3H598V4.22h8.78v3h-5.13v3.26h4.91Z" transform="translate(-0.11 -3.92)"/><path class="cls-1" d="M612.45,17l-.55,3.47h-3.72l3.19-16.2h5.24l3.24,16.2H616L615.41,17Zm2.47-3.13c-.37-2.36-.73-5-.93-6.49h-.12c-.16,1.55-.56,4.13-.94,6.49Z" transform="translate(-0.11 -3.92)"/><path class="cls-1" d="M631.23,15.34c-.05,1.68-.65,5.39-5.16,5.39s-5.42-3.26-5.42-8.44c0-5.86,1.86-8.36,5.57-8.36,4.33,0,5,3.3,5,5.24h-3.71c0-.91-.06-2.31-1.36-2.31s-1.6,1.48-1.6,5.45c0,3.48.19,5.52,1.56,5.52s1.35-1.51,1.39-2.49Z" transform="translate(-0.11 -3.92)"/><path class="cls-1" d="M632.84,4.22h3.72v6.12h2.81V4.22h3.74v16.2h-3.74v-7h-2.81v7h-3.72Z" transform="translate(-0.11 -3.92)"/><path class="cls-1" d="M654.12,13.55h-4.91v3.87h5.56l-.44,3h-8.77V4.22h8.78v3h-5.13v3.26h4.91Z" transform="translate(-0.11 -3.92)"/><path class="cls-1" d="M660,13.79v6.63h-3.67V4.22h5.47c3.13,0,4.72,1.55,4.72,4.48,0,2.25-1.1,3.3-2.08,3.68,1.27.57,1.87,1.61,1.87,3.94v.57a25.92,25.92,0,0,0,.17,3.53h-3.61a16.66,16.66,0,0,1-.26-3.65v-.56c0-1.91-.38-2.42-1.81-2.42ZM660,11h.86c1.4,0,1.93-.5,1.93-2.08,0-1.34-.47-1.92-1.69-1.92H660Z" transform="translate(-0.11 -3.92)"/><path class="cls-1" d="M671.55,15.73c.09,1.33.47,2.25,1.58,2.25s1.43-.73,1.43-1.65c0-1.12-.56-1.78-2.47-2.76-2.81-1.45-3.88-2.68-3.88-5.06,0-2.77,1.7-4.59,4.91-4.59,3.78,0,4.86,2.36,4.89,4.85h-3.59c-.06-1.13-.27-2.1-1.32-2.1-.83,0-1.2.54-1.2,1.44s.36,1.41,2.12,2.29c3,1.51,4.28,2.79,4.28,5.51s-1.56,4.82-5.2,4.82c-3.94,0-5.15-2.25-5.23-5Z" transform="translate(-0.11 -3.92)"/><path class="cls-1" d="M741.54,4.22h5.31c2.82,0,4.84,1.55,4.84,4.91s-1.81,5-5,5h-1.45v6.32h-3.7Zm3.7,7h1c1.29,0,1.77-.63,1.77-2.15S747.33,7,746.28,7h-1Z" transform="translate(-0.11 -3.92)"/><path class="cls-1" d="M757,4.22V15.56c0,1.06.22,2.25,1.54,2.25s1.51-1,1.51-2.23V4.22h3.74V15.46c0,3.3-1.62,5.27-5.33,5.27s-5.18-1.95-5.18-5.3V4.22Z" transform="translate(-0.11 -3.92)"/><path class="cls-1" d="M766,4.22h5.39c2.91,0,4.53,1.48,4.53,4.16,0,2-.93,3-1.94,3.34a3.76,3.76,0,0,1,2.38,3.89c0,3.22-2,4.81-5.09,4.81H766Zm4.61,6.32c1.38,0,1.7-.56,1.7-1.81s-.52-1.79-1.66-1.79h-1v3.6Zm-1,7.19h1.18c1.15,0,1.75-.55,1.75-2.24s-.49-2.33-2-2.33h-1Z" transform="translate(-0.11 -3.92)"/><path class="cls-1" d="M778.1,4.22h3.73V17.4H787l-.35,3H778.1Z" transform="translate(-0.11 -3.92)"/><path class="cls-1" d="M792,4.22v16.2h-3.72V4.22Z" transform="translate(-0.11 -3.92)"/><path class="cls-1" d="M797.35,15.73c.09,1.33.47,2.25,1.58,2.25s1.43-.73,1.43-1.65c0-1.12-.56-1.78-2.47-2.76-2.81-1.45-3.88-2.68-3.88-5.06,0-2.77,1.7-4.59,4.91-4.59,3.77,0,4.85,2.36,4.89,4.85h-3.59c-.06-1.13-.27-2.1-1.32-2.1-.83,0-1.2.54-1.2,1.44s.36,1.41,2.12,2.29c3,1.51,4.28,2.79,4.28,5.51s-1.57,4.82-5.2,4.82c-3.95,0-5.15-2.25-5.23-5Z" transform="translate(-0.11 -3.92)"/><path class="cls-1" d="M805.85,4.22h3.73v6.12h2.8V4.22h3.74v16.2h-3.74v-7h-2.8v7h-3.73Z" transform="translate(-0.11 -3.92)"/><path class="cls-1" d="M827.13,13.55h-4.91v3.87h5.56l-.43,3h-8.78V4.22h8.78v3h-5.13v3.26h4.91Z" transform="translate(-0.11 -3.92)"/><path class="cls-1" d="M833,13.79v6.63h-3.67V4.22h5.47c3.13,0,4.72,1.55,4.72,4.48,0,2.25-1.1,3.3-2.08,3.68,1.27.57,1.87,1.61,1.87,3.94v.57a25.92,25.92,0,0,0,.17,3.53h-3.61a16.66,16.66,0,0,1-.26-3.65v-.56c0-1.91-.38-2.42-1.81-2.42ZM833,11h.86c1.4,0,1.93-.5,1.93-2.08,0-1.34-.47-1.92-1.69-1.92H833Z" transform="translate(-0.11 -3.92)"/><path class="cls-1" d="M844.56,15.73c.09,1.33.47,2.25,1.59,2.25s1.42-.73,1.42-1.65c0-1.12-.56-1.78-2.47-2.76-2.81-1.45-3.88-2.68-3.88-5.06,0-2.77,1.7-4.59,4.91-4.59,3.78,0,4.86,2.36,4.89,4.85h-3.59c-.06-1.13-.26-2.1-1.32-2.1-.83,0-1.2.54-1.2,1.44s.36,1.41,2.12,2.29c3,1.51,4.28,2.79,4.28,5.51s-1.56,4.82-5.2,4.82c-3.94,0-5.15-2.25-5.22-5Z" transform="translate(-0.11 -3.92)"/></g></g></svg>